<?xml version="1.0" encoding="utf-8"?><!-- Generator: Adobe Illustrator 16.0.0, SVG Export Plug-In . SVG Version: 6.00 Build 0) --><!DOCTYPE svg PUBLIC "-//W3C//DTD SVG 1.1//EN" "http://www.w3.org/Graphics/SVG/1.1/DTD/svg11.dtd"><svg version="1.1" id="Layer_6" xmlns="http://www.w3.org/2000/svg" xmlns:xlink="http://www.w3.org/1999/xlink" x="0px" y="0px" width="100px" height="100px" viewBox="0 0 100 100" enable-background="new 0 0 100 100" xml:space="preserve"><g><path d="M42.864,33.693l1.408,1.029l0.172,0.125l-0.027,0.21l-2.455,19.646l-0.023,0.194l-0.178,0.086l-0.104,0.05l-1.154,0.702	l-4.491,24.4l2.997,1.296l3.077-26.194l0.011-0.083v-0.584l0.063,0.035l0.004-0.033l0.114,0.097l0.35,0.189l2.008,1.087l0.203,0.11	l-0.016,0.23l-0.233,3.542l-0.001,0.042l-0.014,0.041l-2.334,7.557l-1.563,14.659l5.278,2.104l2.078-33.703l0.027-0.45l0.433,0.125	l0.138,0.04l0.945-22.972l-0.233-1.956L42.864,33.693z M48.244,46.667v0.736v0.188L48.09,47.7l-4.736,3.31l-0.687,0.48l0.123-0.829	l0.119-0.8l0.021-0.153l0.127-0.089l4.618-3.246l0.568-0.4V46.667z M48.417,42.347l-0.005,0.104l-0.001,0.005v0.004l-0.05,0.69	l-0.011,0.158l-0.123,0.098l-4.299,3.429l-0.675,0.539l0.093-0.859l0.073-0.691l0.015-0.146l0.115-0.094l4.277-3.531l0.627-0.517	L48.417,42.347z M48.591,38.473l-0.061,0.788l-0.011,0.138l-0.1,0.095l-4.058,3.891l-0.739,0.708l0.131-1.015l0.12-0.917	l0.016-0.128l0.094-0.088l4.001-3.764l0.679-0.638L48.591,38.473z M48.754,34.969l-0.052,0.922l-0.008,0.139l-0.1,0.097l-3.83,3.77	l-0.85,0.837l0.244-1.168l0.18-0.858l0.021-0.102l0.072-0.075l3.702-3.833L48.809,34L48.754,34.969z M48.874,31.649v0.852v0.153	l-0.11,0.106l-3.479,3.369l-0.729,0.707l0.121-1.008l0.109-0.922l0.016-0.126l0.09-0.089l3.369-3.299l0.613-0.6V31.649z"/><polygon points="55.366,37.468 56.91,38.263 56.851,35.931 55.366,35.119	"/><polygon points="57.423,50.827 55.706,50.375 55.825,54.022 57.042,54.467 57.017,53.971 57.591,53.702	"/><polygon points="57.423,46.884 55.706,46.148 55.825,49.349 57.651,50.027	"/><polygon points="45.034,35.871 48.513,32.501 48.513,31.649 45.144,34.949	"/><polygon points="44.513,39.64 48.342,35.871 48.395,34.949 44.691,38.781	"/><polygon points="53.83,30.84 52.285,30.045 52.285,32.551 53.888,33.409	"/><polygon points="60.054,82.343 60.052,82.301 60.046,82.291	"/><polygon points="43.146,50.715 47.884,47.404 47.884,46.667 43.265,49.915	"/><polygon points="32.301,55.364 32.274,55.486 32.178,55.565 31.302,56.287 25.736,76.449 25.728,76.479 25.714,76.507	28.04,78.791 33.877,51.074 33.087,51.815	"/><polygon points="44.112,43.125 48.172,39.234 48.232,38.445 44.23,42.208	"/><polygon points="43.704,46.554 48.002,43.125 48.052,42.435 48.057,42.331 43.778,45.861	"/><polygon points="52.345,40.263 52.345,43.58 54.281,44.374 54.163,41.121	"/><polygon points="56.961,39.242 55.366,38.436 55.483,40.947 57.138,41.689	"/><polygon points="55.706,55.623 55.825,59.334 57.313,59.834 57.13,56.224	"/><polygon points="57.19,42.663 55.544,41.869 55.647,45.006 57.423,45.742	"/><polygon points="53.992,34.389 52.345,33.525 52.285,35.931 54.05,36.778	"/><path d="M50,1.125C23.008,1.125,1.125,23.007,1.125,50S23.008,98.875,50,98.875S98.875,76.993,98.875,50S76.992,1.125,50,1.125z M71.118,79.89l-2.679,0.516l-1.938-0.516l-0.118-0.052l0.174,1.363l-6.506,1.101l0.054,0.105l-1.657-0.23v0.631l-12.156,1.937	l-0.006,0.003l-5.995-2.389l0.058-0.687l-0.209,0.057l0.038-0.007l-0.861,0.238l-3.712-1.605l0.283-1.534l-7.586,0.736	l-0.063-0.064l-2.961-2.905l0.109-0.232l5.596-20.271l0.966-0.794l0.81-3.659l1.707-1.59l0.003-0.011l0.007,0.001l0.002-0.001	v0.001l5.008,1.031l1.203-7.312l1.031-1.537l1.413,0.218l0.927-7.417l-1.707-1.247l7.244-9.37v-0.009l0.463,0.301l0.852-9.433	l0.629,10.393l9.25,6l-2.286,2.226l1.481,14.38l4.404,1.716l0.623,3.827l2.398-0.917l2.122,0.807l5.188,25.066l-3.684,0.679	L71.118,79.89z"/><polygon points="65.304,56.939 65.096,56.87 65.063,56.653 64.064,50.23 60.403,48.803 60.898,53.68 62.534,54.072 62.778,54.13	62.808,54.381 65.45,77.065 65.908,76.968 66.28,76.889 66.341,77.265 66.707,79.571 68.453,80.036 70.702,79.603 66.816,57.445	"/><polygon points="57.39,54.194 58.788,81.858 59.634,81.976 57.917,53.948	"/><polygon points="52.345,51.73 54.108,52.26 54.05,53.57 54.454,53.687 54.454,49.976 52.345,49.111	"/><polygon points="56.619,32.324 55.195,31.588 55.254,34.157 56.738,34.899	"/><polygon points="52.389,44.658 52.345,47.969 54.454,48.77 54.34,45.458	"/><polygon points="54.163,40.263 54.05,37.746 52.285,36.894 52.345,39.405	"/></g></svg>